<svg width="20" height="20" viewBox="0 0 20 20" fill="none" xmlns="http://www.w3.org/2000/svg">
<path d="M10.0006 2.49921C8.51719 2.49894 7.06698 2.93859 5.8334 3.76256C4.59983 4.58652 3.6383 5.7578 3.07042 7.12825C2.50255 8.4987 2.35382 10.0068 2.64307 11.4618C2.93231 12.9167 3.64653 14.2533 4.69539 15.3023C5.74425 16.3514 7.08065 17.0658 8.53558 17.3553C9.9905 17.6448 11.4986 17.4964 12.8692 16.9288C14.2397 16.3611 15.4112 15.3998 16.2354 14.1664C17.0595 12.933 17.4995 11.4828 17.4995 9.99938C17.4995 8.01045 16.7094 6.10295 15.3032 4.69644C13.8969 3.28992 11.9896 2.49957 10.0006 2.49921ZM12.0826 12.9902L9.89499 16.0529C9.83437 16.1391 9.74586 16.2018 9.64439 16.2303C9.54686 16.2303 9.44798 16.2303 9.35046 16.2141C9.26152 16.182 9.18478 16.123 9.13089 16.0454C9.077 15.9677 9.04864 15.8752 9.04974 15.7806V14.0969L8.53501 13.5822C8.35613 13.4029 8.20705 13.1962 8.09343 12.9699L7.73312 12.2479C7.65922 12.1007 7.63358 11.9339 7.65984 11.7712C7.6861 11.6085 7.76292 11.4583 7.87941 11.3417L9.05381 10.1714L5.88686 8.27503C5.65439 8.1358 5.46195 7.93872 5.3283 7.70299C5.19465 7.46727 5.12435 7.20094 5.12424 6.92996V6.10097C5.70837 5.36816 6.45008 4.77635 7.29429 4.36949C8.13849 3.96263 9.06351 3.75117 10.0006 3.75082C10.4689 3.75255 10.9355 3.80661 11.3918 3.91201L11.404 4.67869C11.4044 4.92256 11.348 5.16318 11.2391 5.38141C11.1302 5.59963 10.9719 5.78943 10.7768 5.93572L8.98879 7.27672C8.89881 7.34414 8.82438 7.43012 8.77055 7.52883C8.71671 7.62753 8.68472 7.73666 8.67676 7.84881C8.66879 7.96096 8.68503 8.07351 8.72438 8.17884C8.76373 8.28416 8.82526 8.37979 8.90481 8.45925L9.8408 9.38712L11.7534 10.8216C12.0805 11.0686 12.2981 11.4337 12.3596 11.8389C12.4211 12.2441 12.3217 12.6573 12.0826 12.9902ZM15.213 10.3312C15.0146 10.3711 14.8095 10.3622 14.6153 10.3052C14.4212 10.2482 14.2437 10.1449 14.0983 10.0042C13.953 9.86347 13.8439 9.68952 13.7807 9.49731C13.7174 9.30511 13.7018 9.10041 13.7351 8.90084L13.9519 7.59775C14.0028 7.30407 14.117 7.02498 14.2866 6.77985C14.4562 6.53472 14.6771 6.32941 14.9339 6.17818C15.7869 7.26929 16.2504 8.61441 16.2506 9.99938C16.2506 10.0427 16.2506 10.0834 16.2438 10.1254L15.213 10.3312Z" fill="#03050F"/>
</svg>
